<svg xmlns="http://www.w3.org/2000/svg" xmlns:xlink="http://www.w3.org/1999/xlink" width="1200" zoomAndPan="magnify" viewBox="0 0 900 187.499995" height="250" preserveAspectRatio="xMidYMid meet" version="1.0"><defs><g/><clipPath id="ae9bc8c087"><path d="M 43.851562 44.976562 L 140.886719 44.976562 L 140.886719 142.390625 L 43.851562 142.390625 Z M 43.851562 44.976562 " clip-rule="nonzero"/></clipPath><clipPath id="91837ef30d"><path d="M 54.324219 44.976562 L 130.417969 44.976562 C 133.195312 44.976562 135.855469 46.078125 137.820312 48.042969 C 139.785156 50.007812 140.886719 52.671875 140.886719 55.449219 L 140.886719 131.554688 C 140.886719 134.332031 139.785156 136.992188 137.820312 138.957031 C 135.855469 140.921875 133.195312 142.023438 130.417969 142.023438 L 54.324219 142.023438 C 51.546875 142.023438 48.882812 140.921875 46.917969 138.957031 C 44.957031 136.992188 43.851562 134.332031 43.851562 131.554688 L 43.851562 55.449219 C 43.851562 52.671875 44.957031 50.007812 46.917969 48.042969 C 48.882812 46.078125 51.546875 44.976562 54.324219 44.976562 Z M 54.324219 44.976562 " clip-rule="nonzero"/></clipPath><clipPath id="da2d98b87f"><path d="M 63.382812 64.511719 L 121.726562 64.511719 L 121.726562 122.855469 L 63.382812 122.855469 Z M 63.382812 64.511719 " clip-rule="nonzero"/></clipPath></defs><g clip-path="url(#ae9bc8c087)"><g clip-path="url(#91837ef30d)"><path fill="#000000" d="M 43.851562 44.976562 L 140.886719 44.976562 L 140.886719 142.011719 L 43.851562 142.011719 Z M 43.851562 44.976562 " fill-opacity="1" fill-rule="nonzero"/></g></g><g fill="#000000" fill-opacity="1"><g transform="translate(160.547632, 140.169739)"><g><path d="M 57.816406 -95.90625 L -2.738281 -95.90625 L -2.738281 0 L 57.542969 0 C 75.078125 0 87.957031 -12.195312 87.957031 -29.730469 C 87.957031 -41.101562 82.066406 -48.089844 71.242188 -52.199219 C 79.054688 -54.941406 83.027344 -62.339844 83.027344 -70.285156 C 83.027344 -84.257812 71.792969 -95.90625 57.816406 -95.90625 Z M 41.648438 -60.28125 L 34.664062 -60.28125 L 34.664062 -70.285156 L 41.648438 -70.285156 C 45.074219 -70.285156 46.582031 -67.820312 46.582031 -65.351562 C 46.582031 -62.886719 44.9375 -60.28125 41.648438 -60.28125 Z M 43.980469 -26.304688 L 34.664062 -26.304688 L 34.664062 -38.363281 L 43.980469 -38.363281 C 48.910156 -38.363281 50.828125 -35.347656 50.828125 -32.332031 C 50.828125 -29.320312 48.773438 -26.304688 43.980469 -26.304688 Z M 43.980469 -26.304688 "/></g></g></g><g fill="#000000" fill-opacity="1"><g transform="translate(256.036091, 140.169739)"><g><path d="M 33.703125 0 L 33.703125 -95.769531 L 0.546875 -95.769531 L 0.546875 0 Z M 33.703125 0 "/></g></g></g><g fill="#000000" fill-opacity="1"><g transform="translate(295.902869, 140.169739)"><g><path d="M 40.691406 2.054688 C 64.667969 2.054688 82.476562 -12.742188 82.476562 -36.992188 C 82.476562 -61.378906 64.804688 -76.175781 40.691406 -76.175781 C 16.578125 -76.175781 -0.960938 -61.378906 -0.960938 -36.992188 C -0.960938 -12.742188 16.714844 2.054688 40.691406 2.054688 Z M 40.691406 -47.816406 C 45.761719 -47.816406 50.964844 -44.253906 50.964844 -36.992188 C 50.964844 -29.730469 45.761719 -26.167969 40.691406 -26.167969 C 35.621094 -26.167969 30.550781 -29.730469 30.550781 -36.992188 C 30.550781 -44.253906 35.621094 -47.816406 40.691406 -47.816406 Z M 40.691406 -47.816406 "/></g></g></g><g fill="#000000" fill-opacity="1"><g transform="translate(383.99337, 140.169739)"><g><path d="M 40.007812 2.054688 C 62.203125 2.054688 78.917969 -11.097656 80.695312 -33.019531 L 50.28125 -33.019531 C 48.910156 -28.496094 44.800781 -26.167969 40.828125 -26.167969 C 35.757812 -26.167969 30.550781 -29.730469 30.550781 -36.992188 C 30.550781 -44.253906 35.757812 -47.816406 40.828125 -47.816406 C 44.800781 -47.816406 48.773438 -45.625 50.28125 -41.101562 L 80.695312 -41.101562 C 78.917969 -63.023438 62.203125 -76.175781 40.007812 -76.175781 C 16.304688 -76.175781 -0.960938 -61.378906 -0.960938 -36.992188 C -0.960938 -12.742188 16.441406 2.054688 40.007812 2.054688 Z M 40.007812 2.054688 "/></g></g></g><g fill="#000000" fill-opacity="1"><g transform="translate(469.617885, 140.169739)"><g><path d="M 60.421875 -37.265625 L 82.753906 -73.023438 L 82.753906 -74.121094 L 47.679688 -74.121094 L 40.554688 -63.84375 L 34.390625 -51.925781 L 34.390625 -95.769531 L 1.371094 -95.769531 L 1.371094 0 L 34.390625 0 L 34.390625 -19.316406 L 48.5 0 L 84.808594 0 L 84.808594 -0.960938 Z M 60.421875 -37.265625 "/></g></g></g><g fill="#000000" fill-opacity="1"><g transform="translate(556.201388, 140.169739)"><g><path d="M -3.5625 -47.816406 C -3.425781 -14.523438 21.785156 2.054688 47.128906 2.054688 C 71.105469 2.054688 95.082031 -12.742188 97.824219 -42.335938 L 62.203125 -42.335938 C 60.28125 -34.9375 54.253906 -31.238281 48.226562 -31.238281 C 40.964844 -31.238281 33.703125 -36.71875 33.566406 -47.816406 C 33.566406 -59.050781 40.828125 -64.53125 48.226562 -64.53125 C 54.117188 -64.53125 59.871094 -60.96875 62.0625 -53.84375 L 97.824219 -53.84375 C 94.808594 -83.300781 70.96875 -98.097656 47.265625 -98.097656 C 21.921875 -98.097656 -3.425781 -81.382812 -3.5625 -47.816406 Z M -3.5625 -47.816406 "/></g></g></g><g fill="#000000" fill-opacity="1"><g transform="translate(661.00582, 140.169739)"><g><path d="M 34.25 0 L 34.25 -21.375 L 31.648438 -43.566406 L 46.035156 -21.375 L 59.1875 -21.375 L 73.574219 -43.566406 L 70.96875 -21.375 L 70.96875 0 L 107.824219 0 L 107.824219 -95.90625 L 71.792969 -95.90625 L 52.609375 -68.503906 L 33.429688 -95.90625 L -2.738281 -95.90625 L -2.738281 0 Z M 34.25 0 "/></g></g></g><g fill="#000000" fill-opacity="1"><g transform="translate(777.044174, 140.169739)"><g><path d="M 42.0625 -95.90625 L -2.738281 -95.90625 L -2.738281 0 L 42.0625 0 C 70.011719 0 96.042969 -11.234375 96.042969 -47.816406 C 96.042969 -84.394531 70.148438 -95.90625 42.0625 -95.90625 Z M 42.0625 -29.320312 L 34.527344 -29.320312 L 34.527344 -66.585938 L 42.0625 -66.585938 C 53.160156 -66.585938 58.640625 -57.132812 58.640625 -47.679688 C 58.640625 -38.5 53.023438 -29.320312 42.0625 -29.320312 Z M 42.0625 -29.320312 "/></g></g></g><g clip-path="url(#da2d98b87f)"><path fill="#ffffff" d="M 110.8125 101.402344 L 102.90625 101.402344 L 102.90625 85.59375 L 110.8125 85.59375 C 116.625 85.59375 121.351562 80.863281 121.351562 75.050781 C 121.351562 69.238281 116.625 64.511719 110.8125 64.511719 C 105 64.511719 100.273438 69.238281 100.273438 75.050781 L 100.273438 82.957031 L 84.460938 82.957031 L 84.460938 75.050781 C 84.460938 69.238281 79.734375 64.511719 73.921875 64.511719 C 68.109375 64.511719 63.382812 69.238281 63.382812 75.050781 C 63.382812 80.863281 68.109375 85.59375 73.921875 85.59375 L 81.828125 85.59375 L 81.828125 101.402344 L 73.921875 101.402344 C 68.109375 101.402344 63.382812 106.128906 63.382812 111.941406 C 63.382812 117.753906 68.109375 122.484375 73.921875 122.484375 C 79.734375 122.484375 84.460938 117.753906 84.460938 111.941406 L 84.460938 104.039062 L 100.273438 104.039062 L 100.273438 111.941406 C 100.273438 117.753906 105 122.484375 110.8125 122.484375 C 116.625 122.484375 121.351562 117.753906 121.351562 111.941406 C 121.351562 106.128906 116.625 101.402344 110.8125 101.402344 Z M 102.90625 75.050781 C 102.90625 70.695312 106.453125 67.148438 110.8125 67.148438 C 115.171875 67.148438 118.71875 70.695312 118.71875 75.050781 C 118.71875 79.410156 115.171875 82.957031 110.8125 82.957031 L 102.90625 82.957031 Z M 81.828125 111.941406 C 81.828125 116.300781 78.28125 119.847656 73.921875 119.847656 C 69.5625 119.847656 66.015625 116.300781 66.015625 111.941406 C 66.015625 107.585938 69.5625 104.039062 73.921875 104.039062 L 81.828125 104.039062 Z M 81.828125 82.957031 L 73.921875 82.957031 C 69.5625 82.957031 66.015625 79.410156 66.015625 75.050781 C 66.015625 70.695312 69.5625 67.148438 73.921875 67.148438 C 78.28125 67.148438 81.828125 70.695312 81.828125 75.050781 Z M 100.273438 101.402344 L 84.460938 101.402344 L 84.460938 85.59375 L 100.273438 85.59375 Z M 110.8125 119.847656 C 106.453125 119.847656 102.90625 116.300781 102.90625 111.941406 L 102.90625 104.039062 L 110.8125 104.039062 C 115.171875 104.039062 118.71875 107.585938 118.71875 111.941406 C 118.71875 116.300781 115.171875 119.847656 110.8125 119.847656 Z M 110.8125 119.847656 " fill-opacity="1" fill-rule="nonzero"/></g></svg>